<?xml version="1.0" standalone="no"?>
<!DOCTYPE svg PUBLIC "-//W3C//DTD SVG 20010904//EN"
 "http://www.w3.org/TR/2001/REC-SVG-20010904/DTD/svg10.dtd">
<svg version="1.0" xmlns="http://www.w3.org/2000/svg"
 width="1024.000000pt" height="1024.000000pt" viewBox="0 0 1024.000000 1024.000000"
 preserveAspectRatio="xMidYMid meet">

<g transform="translate(0.000000,1024.000000) scale(0.100000,-0.100000)"
fill="#000000" stroke="none">
<path d="M7045 7790 c-3 -6 1 -7 9 -4 18 7 21 14 7 14 -6 0 -13 -4 -16 -10z"/>
<path d="M6296 7728 c-13 -15 -15 -23 -5 -34 7 -9 8 -14 1 -14 -13 0 -26 36
-17 50 3 5 1 10 -4 10 -6 0 -11 -7 -11 -17 0 -14 -2 -14 -20 2 -18 16 -20 16
-15 2 4 -9 42 -51 84 -94 121 -122 192 -240 247 -408 13 -40 25 -63 28 -55 3
8 19 53 35 99 58 159 117 250 245 376 44 44 71 71 59 61 -12 -10 -27 -15 -33
-11 -6 3 -9 1 -8 -6 2 -6 -7 -12 -19 -14 -14 -1 -23 4 -23 12 0 15 -16 18 -25
3 -3 -5 -15 -6 -29 0 -14 5 -28 4 -37 -2 -11 -8 -10 -9 4 -4 9 3 17 2 17 -3 0
-15 -247 -3 -310 16 -33 9 -60 21 -60 24 0 4 -9 5 -20 2 -11 -3 -31 2 -43 10
-22 14 -25 14 -41 -5z m34 -20 c0 -5 -7 -8 -15 -8 -17 0 -18 2 -9 25 5 13 8
14 15 3 5 -7 9 -16 9 -20z m-5 -27 c3 -5 2 -12 -3 -15 -5 -3 -9 1 -9 9 0 17 3
19 12 6z m50 -22 c-3 -12 -7 -24 -10 -27 -3 -3 -3 5 -1 19 6 30 5 29 10 29 3
0 3 -10 1 -21z m455 1 c0 -5 -4 -10 -10 -10 -5 0 -10 5 -10 10 0 6 5 10 10 10
6 0 10 -4 10 -10z"/>
<path d="M3517 7633 c-7 -7 -10 -3883 -3 -3883 3 0 49 9 103 19 871 172 1891
172 2678 0 49 -10 98 -22 107 -25 17 -5 18 68 18 1563 0 1354 -2 1581 -15
1662 -29 176 -110 337 -229 456 -121 119 -261 184 -444 205 -97 11 -2204 14
-2215 3z m1702 -633 c270 -28 480 -158 579 -360 65 -132 85 -220 85 -385 1
-160 -21 -273 -74 -381 -68 -137 -199 -259 -339 -314 -41 -16 -74 -33 -73 -38
1 -5 44 -80 96 -168 197 -334 437 -756 437 -768 0 -3 -124 -5 -275 -4 l-276 3
-53 100 c-210 400 -346 660 -376 722 l-35 73 -127 0 -128 0 0 -450 0 -450
-265 0 -265 0 0 1215 0 1215 494 0 c272 0 539 -5 595 -10z"/>
<path d="M4662 6238 l3 -323 185 -3 c102 -1 217 2 255 8 185 28 271 131 270
325 -1 92 -25 158 -78 213 -77 81 -165 102 -435 102 l-202 0 2 -322z"/>
</g>
</svg>
